<svg class="svg" xmlns="http://www.w3.org/2000/svg" xmlns:xlink="http://www.w3.org/1999/xlink" width="10" height="10"><path d="M7.462 4.566C7.37617 4.07905 7.14787 3.62849 6.80596 3.27129C6.46406 2.91409 6.02392 2.6663 5.54118 2.55926C5.05845 2.45221 4.55482 2.49072 4.09397 2.6699C3.63313 2.84909 3.23577 3.16091 2.95214 3.56593C2.66851 3.97095 2.51136 4.45099 2.50055 4.94532C2.48974 5.43966 2.62577 5.92611 2.89142 6.34314C3.15708 6.76017 3.54043 7.08906 3.99301 7.28821C4.44558 7.48737 4.94705 7.54785 5.434 7.462M0.5 5C0.5 5.89002 0.76392 6.76004 1.25839 7.50007C1.75285 8.24009 2.45566 8.81686 3.27792 9.15746C4.10019 9.49805 5.00499 9.58717 5.87791 9.41353C6.75082 9.2399 7.55264 8.81132 8.18198 8.18198C8.81132 7.55264 9.2399 6.75082 9.41353 5.87791C9.58717 5.00499 9.49805 4.10019 9.15746 3.27792C8.81686 2.45566 8.24009 1.75285 7.50007 1.25839C6.76004 0.76392 5.89002 0.5 5 0.5M4.5 5C4.5 5.13261 4.55268 5.25978 4.64645 5.35355C4.74021 5.44732 4.86739 5.5 5 5.5C5.13261 5.5 5.25978 5.44732 5.35355 5.35355C5.44732 5.25978 5.5 5.13261 5.5 5C5.5 4.86739 5.44732 4.74021 5.35355 4.64645C5.25978 4.55268 5.13261 4.5 5 4.5C4.86739 4.5 4.74021 4.55268 4.64645 4.64645C4.55268 4.74021 4.5 4.86739 4.5 5Z" fill="none" stroke-width="1" stroke-opacity="0.3" stroke="#000000"></path></svg>